<?xml version="1.0" encoding="utf-8"?>
<!-- Generator: Adobe Illustrator 25.2.3, SVG Export Plug-In . SVG Version: 6.00 Build 0)  -->
<svg version="1.1" id="Layer_1" xmlns="http://www.w3.org/2000/svg" xmlns:xlink="http://www.w3.org/1999/xlink" x="0px" y="0px"
	 viewBox="0 0 203.1 38" style="enable-background:new 0 0 203.1 38;" xml:space="preserve">
<g>
	<g>
		<path d="M3.4,14.3c0.8-1,1.7-1.7,2.7-2.3s2.1-0.9,3.4-0.9c0.9,0,1.7,0.1,2.5,0.4c0.7,0.3,1.3,0.7,1.8,1.3c0.5,0.6,0.8,1.2,1.1,2
			c0.2,0.8,0.4,1.7,0.4,2.7v10.8h-1.6V17.6c0-1.6-0.4-2.8-1.1-3.7s-1.8-1.4-3.3-1.4c-1.1,0-2.1,0.3-3.1,0.8c-1,0.6-1.8,1.3-2.6,2.3
			v12.7H1.8V3.7h1.6V14.3z"/>
		<path d="M27.2,11.2c1.2,0,2.3,0.2,3.3,0.6c1,0.4,1.8,1,2.4,1.8c0.7,0.8,1.2,1.7,1.5,2.7s0.5,2.3,0.5,3.6c0,1.3-0.2,2.5-0.5,3.6
			s-0.8,2-1.5,2.7c-0.7,0.8-1.5,1.3-2.4,1.8c-1,0.4-2,0.6-3.3,0.6c-1.2,0-2.3-0.2-3.3-0.6c-1-0.4-1.8-1-2.4-1.8
			c-0.7-0.8-1.2-1.7-1.5-2.7c-0.3-1.1-0.5-2.3-0.5-3.6c0-1.3,0.2-2.5,0.5-3.6c0.3-1.1,0.9-2,1.5-2.7c0.7-0.8,1.5-1.3,2.4-1.8
			C24.9,11.4,26,11.2,27.2,11.2z M27.2,27.4c1,0,1.9-0.2,2.6-0.5s1.4-0.8,1.9-1.5c0.5-0.6,0.9-1.4,1.1-2.3s0.4-1.9,0.4-3.1
			c0-1.1-0.1-2.1-0.4-3.1s-0.6-1.7-1.1-2.4s-1.1-1.2-1.9-1.5c-0.8-0.4-1.6-0.5-2.6-0.5s-1.9,0.2-2.6,0.5c-0.8,0.4-1.4,0.9-1.9,1.5
			c-0.5,0.7-0.9,1.4-1.1,2.4s-0.4,1.9-0.4,3.1c0,1.1,0.1,2.2,0.4,3.1s0.6,1.7,1.1,2.3c0.5,0.6,1.1,1.1,1.9,1.5
			C25.3,27.2,26.2,27.4,27.2,27.4z"/>
		<path d="M61.8,11.5l-5.6,16.9H55c-0.2,0-0.3-0.1-0.4-0.4l-4.6-13.7c-0.1-0.2-0.1-0.3-0.2-0.5c0-0.2-0.1-0.3-0.1-0.5
			c-0.1,0.3-0.1,0.7-0.3,1l-4.7,13.7c-0.1,0.2-0.2,0.4-0.4,0.4h-1.2l-5.6-16.9h1.2c0.2,0,0.3,0,0.4,0.1c0.1,0.1,0.2,0.2,0.2,0.3
			l4.3,13.3c0.1,0.3,0.1,0.5,0.2,0.8c0.1,0.2,0.1,0.5,0.1,0.7c0.1-0.2,0.1-0.5,0.2-0.7c0.1-0.2,0.1-0.5,0.2-0.8l4.5-13.5
			c0.1-0.2,0.2-0.4,0.5-0.4H50c0.2,0,0.4,0.1,0.5,0.4L55,25.2c0.1,0.3,0.2,0.5,0.2,0.7c0.1,0.2,0.1,0.5,0.2,0.7
			c0-0.2,0.1-0.5,0.1-0.7s0.1-0.5,0.2-0.7l4.3-13.3c0-0.1,0.1-0.2,0.2-0.3c0.1-0.1,0.2-0.1,0.4-0.1H61.8z"/>
		<path d="M76.2,14.5c0.8-1,1.7-1.8,2.7-2.3c1-0.6,2.2-0.9,3.4-0.9c0.9,0,1.7,0.1,2.5,0.4c0.7,0.3,1.3,0.7,1.8,1.3
			c0.5,0.6,0.8,1.2,1.1,2c0.2,0.8,0.4,1.7,0.4,2.7v10.8h-1.6V17.6c0-1.6-0.4-2.8-1.1-3.7s-1.8-1.4-3.3-1.4c-1.1,0-2.1,0.3-3.1,0.8
			c-1,0.6-1.8,1.3-2.6,2.3v12.7h-1.6V11.5h0.9c0.3,0,0.4,0.1,0.5,0.4L76.2,14.5z"/>
		<path d="M107.1,11.5l-9.7,22.4c-0.1,0.2-0.2,0.3-0.3,0.4c-0.1,0.1-0.3,0.2-0.5,0.2h-1.2l3-6.6l-7.2-16.3h1.3c0.2,0,0.3,0,0.4,0.1
			c0.1,0.1,0.2,0.2,0.2,0.3l5.7,13.2c0.1,0.2,0.1,0.3,0.2,0.5c0.1,0.2,0.1,0.4,0.1,0.5c0.1-0.2,0.1-0.4,0.2-0.5
			c0.1-0.2,0.1-0.3,0.2-0.5l5.6-13.2c0.1-0.1,0.1-0.2,0.2-0.3c0.1-0.1,0.2-0.1,0.3-0.1H107.1z"/>
		<path d="M121.8,13.8c-0.1,0.1-0.1,0.1-0.2,0.1c-0.1,0-0.1,0.1-0.2,0.1c-0.1,0-0.3-0.1-0.5-0.2c-0.2-0.2-0.5-0.3-0.8-0.5
			c-0.3-0.2-0.7-0.3-1.2-0.5c-0.5-0.2-1.1-0.2-1.8-0.2c-1,0-1.8,0.2-2.6,0.5c-0.8,0.3-1.4,0.8-1.9,1.5s-0.9,1.4-1.2,2.3
			c-0.3,0.9-0.4,1.9-0.4,3.1c0,1.2,0.1,2.2,0.4,3.2c0.3,0.9,0.7,1.7,1.2,2.3s1.1,1.1,1.9,1.4c0.7,0.3,1.5,0.5,2.4,0.5
			c0.8,0,1.5-0.1,2-0.3c0.5-0.2,1-0.4,1.4-0.6c0.4-0.2,0.6-0.4,0.8-0.6c0.2-0.2,0.4-0.3,0.5-0.3c0.1,0,0.2,0.1,0.3,0.2l0.4,0.5
			c-0.3,0.3-0.6,0.7-1,1c-0.4,0.3-0.8,0.5-1.3,0.8c-0.5,0.2-1,0.4-1.6,0.5c-0.6,0.1-1.2,0.2-1.8,0.2c-1.1,0-2.1-0.2-2.9-0.6
			c-0.9-0.4-1.7-1-2.3-1.7c-0.6-0.7-1.1-1.7-1.5-2.7c-0.4-1.1-0.5-2.3-0.5-3.7c0-1.3,0.2-2.5,0.5-3.5s0.8-2,1.5-2.8
			c0.7-0.8,1.5-1.4,2.4-1.8c0.9-0.4,2-0.6,3.3-0.6c1.1,0,2.1,0.2,2.9,0.5c0.8,0.4,1.6,0.8,2.2,1.4L121.8,13.8z"/>
		<path d="M137.5,3.7v24.7h-1.6V3.7H137.5z"/>
		<path d="M145.7,5.7c0,0.2,0,0.4-0.1,0.6s-0.2,0.3-0.3,0.5c-0.1,0.1-0.3,0.2-0.5,0.3c-0.2,0.1-0.4,0.1-0.6,0.1
			c-0.2,0-0.4,0-0.6-0.1c-0.2-0.1-0.3-0.2-0.5-0.3c-0.1-0.1-0.2-0.3-0.3-0.5c-0.1-0.2-0.1-0.4-0.1-0.6s0-0.4,0.1-0.6
			c0.1-0.2,0.2-0.3,0.3-0.5c0.1-0.1,0.3-0.2,0.5-0.3c0.2-0.1,0.4-0.1,0.6-0.1c0.2,0,0.4,0,0.6,0.1c0.2,0.1,0.3,0.2,0.5,0.3
			c0.1,0.1,0.2,0.3,0.3,0.5S145.7,5.5,145.7,5.7z M145,11.5v16.9h-1.6V11.5H145z"/>
		<path d="M164.4,11.5l-7.1,16.9h-1.4l-7.1-16.9h1.3c0.2,0,0.3,0,0.4,0.1c0.1,0.1,0.2,0.2,0.2,0.3l5.6,13.3c0.2,0.5,0.3,1,0.4,1.5
			c0.1-0.5,0.2-1,0.4-1.5l5.6-13.3c0.1-0.1,0.1-0.2,0.2-0.3c0.1-0.1,0.2-0.1,0.3-0.1H164.4z"/>
		<path d="M168.4,19.3v0.3c0,1.3,0.1,2.4,0.4,3.3s0.7,1.8,1.3,2.4c0.5,0.7,1.2,1.1,2,1.5c0.8,0.3,1.6,0.5,2.6,0.5
			c0.8,0,1.6-0.1,2.2-0.3c0.6-0.2,1.1-0.4,1.6-0.6s0.8-0.4,1-0.6c0.2-0.2,0.4-0.3,0.5-0.3c0.1,0,0.3,0.1,0.3,0.2l0.4,0.5
			c-0.3,0.3-0.6,0.7-1.1,1c-0.4,0.3-0.9,0.5-1.5,0.8s-1.1,0.4-1.8,0.5c-0.6,0.1-1.3,0.2-1.9,0.2c-1.2,0-2.2-0.2-3.2-0.6
			s-1.8-1-2.4-1.8c-0.7-0.8-1.2-1.7-1.6-2.8s-0.6-2.4-0.6-3.8c0-1.2,0.2-2.3,0.5-3.4c0.3-1,0.8-1.9,1.5-2.7s1.5-1.3,2.4-1.7
			c0.9-0.4,2-0.6,3.2-0.6c1,0,1.8,0.2,2.7,0.5c0.8,0.3,1.5,0.8,2.1,1.4c0.6,0.6,1.1,1.4,1.4,2.3s0.5,2,0.5,3.2c0,0.2,0,0.4-0.1,0.5
			c-0.1,0.1-0.2,0.1-0.3,0.1H168.4z M179.7,18.2c0-0.9-0.1-1.7-0.4-2.4s-0.6-1.3-1.1-1.8c-0.5-0.5-1-0.9-1.7-1.1
			c-0.6-0.3-1.3-0.4-2.1-0.4c-0.9,0-1.7,0.1-2.3,0.4c-0.7,0.3-1.3,0.7-1.8,1.2c-0.5,0.5-0.9,1.1-1.2,1.8c-0.3,0.7-0.5,1.5-0.6,2.4
			H179.7z"/>
		<path d="M194.9,13.6c-0.1,0.2-0.2,0.2-0.4,0.2c-0.1,0-0.3-0.1-0.5-0.2s-0.5-0.3-0.8-0.5s-0.7-0.3-1.2-0.5s-1.1-0.2-1.7-0.2
			c-0.6,0-1.2,0.1-1.7,0.3c-0.5,0.2-0.9,0.4-1.3,0.7c-0.4,0.3-0.6,0.6-0.8,1c-0.2,0.4-0.3,0.8-0.3,1.2c0,0.5,0.1,1,0.4,1.3
			c0.3,0.4,0.6,0.7,1.1,0.9s0.9,0.5,1.5,0.6c0.6,0.2,1.1,0.4,1.7,0.5c0.6,0.2,1.2,0.4,1.7,0.6c0.6,0.2,1.1,0.5,1.5,0.8
			c0.4,0.3,0.8,0.7,1.1,1.2c0.3,0.5,0.4,1.1,0.4,1.7c0,0.7-0.1,1.4-0.4,2.1c-0.3,0.6-0.6,1.2-1.1,1.6c-0.5,0.5-1.1,0.8-1.9,1.1
			c-0.7,0.3-1.6,0.4-2.5,0.4c-1.2,0-2.2-0.2-3.1-0.6s-1.6-0.9-2.3-1.5l0.4-0.6c0.1-0.1,0.1-0.2,0.2-0.2c0.1,0,0.2-0.1,0.3-0.1
			c0.1,0,0.3,0.1,0.5,0.3c0.2,0.2,0.5,0.4,0.8,0.6c0.4,0.2,0.8,0.4,1.3,0.6c0.5,0.2,1.2,0.3,1.9,0.3c0.7,0,1.3-0.1,1.9-0.3
			s1-0.5,1.4-0.8s0.6-0.7,0.8-1.2c0.2-0.5,0.3-0.9,0.3-1.5c0-0.6-0.1-1-0.4-1.4c-0.3-0.4-0.6-0.7-1.1-1c-0.4-0.3-0.9-0.5-1.5-0.7
			c-0.6-0.2-1.1-0.4-1.7-0.5c-0.6-0.2-1.2-0.4-1.7-0.6c-0.6-0.2-1.1-0.5-1.5-0.8c-0.4-0.3-0.8-0.7-1.1-1.2c-0.3-0.5-0.4-1.1-0.4-1.8
			c0-0.6,0.1-1.2,0.4-1.7c0.3-0.6,0.6-1,1.1-1.5c0.5-0.4,1.1-0.8,1.8-1c0.7-0.2,1.5-0.4,2.3-0.4c1,0,1.9,0.1,2.7,0.4
			c0.8,0.3,1.5,0.7,2.2,1.4L194.9,13.6z"/>
	</g>
</g>
</svg>
