<?xml version="1.0" encoding="utf-8"?>
<!-- Generator: Adobe Illustrator 25.2.3, SVG Export Plug-In . SVG Version: 6.00 Build 0)  -->
<svg version="1.1" id="Layer_1" xmlns="http://www.w3.org/2000/svg" xmlns:xlink="http://www.w3.org/1999/xlink" x="0px" y="0px"
	 viewBox="0 0 202.7 38" style="enable-background:new 0 0 202.7 38;" xml:space="preserve">
<style type="text/css">
	.st0{fill:#FFFFFF;}
</style>
<g>
	<g>
		<path class="st0" d="M3.8,14.2c0.8-1,1.7-1.7,2.7-2.3S8.6,11,9.8,11c0.9,0,1.7,0.1,2.5,0.4c0.7,0.3,1.3,0.7,1.8,1.3
			c0.5,0.6,0.8,1.2,1.1,2c0.2,0.8,0.4,1.7,0.4,2.7v10.8h-1.6V17.4c0-1.6-0.4-2.8-1.1-3.7s-1.8-1.4-3.3-1.4c-1.1,0-2.1,0.3-3.1,0.8
			c-1,0.6-1.8,1.3-2.6,2.3v12.7H2.2V3.5h1.6V14.2z"/>
		<path class="st0" d="M27.6,11c1.2,0,2.3,0.2,3.3,0.6c1,0.4,1.8,1,2.4,1.8c0.7,0.8,1.2,1.7,1.5,2.7s0.5,2.3,0.5,3.6
			c0,1.3-0.2,2.5-0.5,3.6s-0.8,2-1.5,2.7c-0.7,0.8-1.5,1.3-2.4,1.8c-1,0.4-2,0.6-3.3,0.6c-1.2,0-2.3-0.2-3.3-0.6
			c-1-0.4-1.8-1-2.4-1.8c-0.7-0.8-1.2-1.7-1.5-2.7c-0.3-1.1-0.5-2.3-0.5-3.6c0-1.3,0.2-2.5,0.5-3.6c0.3-1.1,0.9-2,1.5-2.7
			c0.7-0.8,1.5-1.3,2.4-1.8C25.3,11.2,26.3,11,27.6,11z M27.6,27.2c1,0,1.9-0.2,2.6-0.5s1.4-0.8,1.9-1.5c0.5-0.6,0.9-1.4,1.1-2.3
			s0.4-1.9,0.4-3.1c0-1.1-0.1-2.1-0.4-3.1s-0.6-1.7-1.1-2.4s-1.1-1.2-1.9-1.5c-0.8-0.4-1.6-0.5-2.6-0.5s-1.9,0.2-2.6,0.5
			c-0.8,0.4-1.4,0.9-1.9,1.5c-0.5,0.7-0.9,1.4-1.1,2.4s-0.4,1.9-0.4,3.1c0,1.1,0.1,2.2,0.4,3.1s0.6,1.7,1.1,2.3
			c0.5,0.6,1.1,1.1,1.9,1.5C25.7,27,26.6,27.2,27.6,27.2z"/>
		<path class="st0" d="M62.2,11.3l-5.6,16.9h-1.2c-0.2,0-0.3-0.1-0.4-0.4l-4.6-13.7c-0.1-0.2-0.1-0.3-0.2-0.5c0-0.2-0.1-0.3-0.1-0.5
			c-0.1,0.3-0.1,0.7-0.3,1l-4.7,13.7c-0.1,0.2-0.2,0.4-0.4,0.4h-1.2l-5.6-16.9h1.2c0.2,0,0.3,0,0.4,0.1c0.1,0.1,0.2,0.2,0.2,0.3
			L44,25.1c0.1,0.3,0.1,0.5,0.2,0.8c0.1,0.2,0.1,0.5,0.1,0.7c0.1-0.2,0.1-0.5,0.2-0.7c0.1-0.2,0.1-0.5,0.2-0.8l4.5-13.5
			c0.1-0.2,0.2-0.4,0.5-0.4h0.7c0.2,0,0.4,0.1,0.5,0.4l4.5,13.5c0.1,0.3,0.2,0.5,0.2,0.7c0.1,0.2,0.1,0.5,0.2,0.7
			c0-0.2,0.1-0.5,0.1-0.7s0.1-0.5,0.2-0.7l4.3-13.3c0-0.1,0.1-0.2,0.2-0.3c0.1-0.1,0.2-0.1,0.4-0.1H62.2z"/>
		<path class="st0" d="M76.6,14.3c0.8-1,1.7-1.8,2.7-2.3c1-0.6,2.2-0.9,3.4-0.9c0.9,0,1.7,0.1,2.5,0.4c0.7,0.3,1.3,0.7,1.8,1.3
			c0.5,0.6,0.8,1.2,1.1,2c0.2,0.8,0.4,1.7,0.4,2.7v10.8h-1.6V17.4c0-1.6-0.4-2.8-1.1-3.7s-1.8-1.4-3.3-1.4c-1.1,0-2.1,0.3-3.1,0.8
			c-1,0.6-1.8,1.3-2.6,2.3v12.7h-1.6V11.3H76c0.3,0,0.4,0.1,0.5,0.4L76.6,14.3z"/>
		<path class="st0" d="M107.4,11.3l-9.7,22.4c-0.1,0.2-0.2,0.3-0.3,0.4c-0.1,0.1-0.3,0.2-0.5,0.2h-1.2l3-6.6l-7.2-16.3H93
			c0.2,0,0.3,0,0.4,0.1c0.1,0.1,0.2,0.2,0.2,0.3l5.7,13.2c0.1,0.2,0.1,0.3,0.2,0.5c0.1,0.2,0.1,0.4,0.1,0.5c0.1-0.2,0.1-0.4,0.2-0.5
			c0.1-0.2,0.1-0.3,0.2-0.5l5.6-13.2c0.1-0.1,0.1-0.2,0.2-0.3c0.1-0.1,0.2-0.1,0.3-0.1H107.4z"/>
		<path class="st0" d="M122.2,13.6c-0.1,0.1-0.1,0.1-0.2,0.1c-0.1,0-0.1,0.1-0.2,0.1c-0.1,0-0.3-0.1-0.5-0.2
			c-0.2-0.2-0.5-0.3-0.8-0.5c-0.3-0.2-0.7-0.3-1.2-0.5c-0.5-0.2-1.1-0.2-1.8-0.2c-1,0-1.8,0.2-2.6,0.5c-0.8,0.3-1.4,0.8-1.9,1.5
			s-0.9,1.4-1.2,2.3c-0.3,0.9-0.4,1.9-0.4,3.1c0,1.2,0.1,2.2,0.4,3.2c0.3,0.9,0.7,1.7,1.2,2.3s1.1,1.1,1.9,1.4
			c0.7,0.3,1.5,0.5,2.4,0.5c0.8,0,1.5-0.1,2-0.3c0.5-0.2,1-0.4,1.4-0.6c0.4-0.2,0.6-0.4,0.8-0.6c0.2-0.2,0.4-0.3,0.5-0.3
			c0.1,0,0.2,0.1,0.3,0.2l0.4,0.5c-0.3,0.3-0.6,0.7-1,1c-0.4,0.3-0.8,0.5-1.3,0.8c-0.5,0.2-1,0.4-1.6,0.5c-0.6,0.1-1.2,0.2-1.8,0.2
			c-1.1,0-2.1-0.2-2.9-0.6c-0.9-0.4-1.7-1-2.3-1.7c-0.6-0.7-1.1-1.7-1.5-2.7c-0.4-1.1-0.5-2.3-0.5-3.7c0-1.3,0.2-2.5,0.5-3.5
			s0.8-2,1.5-2.8c0.7-0.8,1.5-1.4,2.4-1.8c0.9-0.4,2-0.6,3.3-0.6c1.1,0,2.1,0.2,2.9,0.5c0.8,0.4,1.6,0.8,2.2,1.4L122.2,13.6z"/>
		<path class="st0" d="M137.9,3.5v24.7h-1.6V3.5H137.9z"/>
		<path class="st0" d="M146.1,5.5c0,0.2,0,0.4-0.1,0.6s-0.2,0.3-0.3,0.5c-0.1,0.1-0.3,0.2-0.5,0.3c-0.2,0.1-0.4,0.1-0.6,0.1
			c-0.2,0-0.4,0-0.6-0.1c-0.2-0.1-0.3-0.2-0.5-0.3c-0.1-0.1-0.2-0.3-0.3-0.5c-0.1-0.2-0.1-0.4-0.1-0.6s0-0.4,0.1-0.6
			c0.1-0.2,0.2-0.3,0.3-0.5c0.1-0.1,0.3-0.2,0.5-0.3c0.2-0.1,0.4-0.1,0.6-0.1c0.2,0,0.4,0,0.6,0.1c0.2,0.1,0.3,0.2,0.5,0.3
			c0.1,0.1,0.2,0.3,0.3,0.5S146.1,5.3,146.1,5.5z M145.4,11.3v16.9h-1.6V11.3H145.4z"/>
		<path class="st0" d="M164.7,11.3l-7.1,16.9h-1.4L149,11.3h1.3c0.2,0,0.3,0,0.4,0.1c0.1,0.1,0.2,0.2,0.2,0.3l5.6,13.3
			c0.2,0.5,0.3,1,0.4,1.5c0.1-0.5,0.2-1,0.4-1.5l5.6-13.3c0.1-0.1,0.1-0.2,0.2-0.3c0.1-0.1,0.2-0.1,0.3-0.1H164.7z"/>
		<path class="st0" d="M168.8,19.1v0.3c0,1.3,0.1,2.4,0.4,3.3s0.7,1.8,1.3,2.4c0.5,0.7,1.2,1.1,2,1.5c0.8,0.3,1.6,0.5,2.6,0.5
			c0.8,0,1.6-0.1,2.2-0.3c0.6-0.2,1.1-0.4,1.6-0.6s0.8-0.4,1-0.6c0.2-0.2,0.4-0.3,0.5-0.3c0.1,0,0.3,0.1,0.3,0.2l0.4,0.5
			c-0.3,0.3-0.6,0.7-1.1,1c-0.4,0.3-0.9,0.5-1.5,0.8s-1.1,0.4-1.8,0.5c-0.6,0.1-1.3,0.2-1.9,0.2c-1.2,0-2.2-0.2-3.2-0.6
			s-1.8-1-2.4-1.8c-0.7-0.8-1.2-1.7-1.6-2.8s-0.6-2.4-0.6-3.8c0-1.2,0.2-2.3,0.5-3.4c0.3-1,0.8-1.9,1.5-2.7s1.5-1.3,2.4-1.7
			c0.9-0.4,2-0.6,3.2-0.6c1,0,1.8,0.2,2.7,0.5c0.8,0.3,1.5,0.8,2.1,1.4c0.6,0.6,1.1,1.4,1.4,2.3s0.5,2,0.5,3.2c0,0.2,0,0.4-0.1,0.5
			c-0.1,0.1-0.2,0.1-0.3,0.1H168.8z M180.1,18c0-0.9-0.1-1.7-0.4-2.4s-0.6-1.3-1.1-1.8c-0.5-0.5-1-0.9-1.7-1.1
			c-0.6-0.3-1.3-0.4-2.1-0.4c-0.9,0-1.7,0.1-2.3,0.4c-0.7,0.3-1.3,0.7-1.8,1.2c-0.5,0.5-0.9,1.1-1.2,1.8c-0.3,0.7-0.5,1.5-0.6,2.4
			H180.1z"/>
		<path class="st0" d="M195.2,13.4c-0.1,0.2-0.2,0.2-0.4,0.2c-0.1,0-0.3-0.1-0.5-0.2s-0.5-0.3-0.8-0.5s-0.7-0.3-1.2-0.5
			s-1.1-0.2-1.7-0.2c-0.6,0-1.2,0.1-1.7,0.3c-0.5,0.2-0.9,0.4-1.3,0.7c-0.4,0.3-0.6,0.6-0.8,1c-0.2,0.4-0.3,0.8-0.3,1.2
			c0,0.5,0.1,1,0.4,1.3c0.3,0.4,0.6,0.7,1.1,0.9s0.9,0.5,1.5,0.6c0.6,0.2,1.1,0.4,1.7,0.5c0.6,0.2,1.2,0.4,1.7,0.6
			c0.6,0.2,1.1,0.5,1.5,0.8c0.4,0.3,0.8,0.7,1.1,1.2c0.3,0.5,0.4,1.1,0.4,1.7c0,0.7-0.1,1.4-0.4,2.1c-0.3,0.6-0.6,1.2-1.1,1.6
			c-0.5,0.5-1.1,0.8-1.9,1.1c-0.7,0.3-1.6,0.4-2.5,0.4c-1.2,0-2.2-0.2-3.1-0.6s-1.6-0.9-2.3-1.5l0.4-0.6c0.1-0.1,0.1-0.2,0.2-0.2
			c0.1,0,0.2-0.1,0.3-0.1c0.1,0,0.3,0.1,0.5,0.3c0.2,0.2,0.5,0.4,0.8,0.6c0.4,0.2,0.8,0.4,1.3,0.6c0.5,0.2,1.2,0.3,1.9,0.3
			c0.7,0,1.3-0.1,1.9-0.3s1-0.5,1.4-0.8s0.6-0.7,0.8-1.2c0.2-0.5,0.3-0.9,0.3-1.5c0-0.6-0.1-1-0.4-1.4c-0.3-0.4-0.6-0.7-1.1-1
			c-0.4-0.3-0.9-0.5-1.5-0.7c-0.6-0.2-1.1-0.4-1.7-0.5c-0.6-0.2-1.2-0.4-1.7-0.6c-0.6-0.2-1.1-0.5-1.5-0.8c-0.4-0.3-0.8-0.7-1.1-1.2
			c-0.3-0.5-0.4-1.1-0.4-1.8c0-0.6,0.1-1.2,0.4-1.7c0.3-0.6,0.6-1,1.1-1.5c0.5-0.4,1.1-0.8,1.8-1c0.7-0.2,1.5-0.4,2.3-0.4
			c1,0,1.9,0.1,2.7,0.4c0.8,0.3,1.5,0.7,2.2,1.4L195.2,13.4z"/>
	</g>
</g>
</svg>
